# xmcd
#
# Track frame offsets: 
#        150
#        26309
#        45266
#        71762
#        93373
#        114021
#        132323
#        152125
#        175385
#        201000
#        224101
#        244170
#        262790
#        292607
#        314021
#
# Disc length: 4494 seconds
#
# Revision: 0
# Processed by: cddbd v1.5.2PL0 Copyright (c) Steve Scherf et al.
# Submitted via: ExactAudioCopy v1.2
#
DISCID=cd118c0f
DTITLE=Regina Belle - Love Songs
DYEAR=2006
DGENRE=Soul
TTITLE0=One Love
TTITLE1=Dream in Color
TTITLE2=Love
TTITLE3=My Man
TTITLE4=Better Together
TTITLE5=A Whole New World (Aladdin's Theme)
TTITLE6=Didn't I (Blow Your Mind This Time)
TTITLE7=The Whole Town's Laughing at Me
TTITLE8=Baby Come to Me
TTITLE9=Make It Like It Was
TTITLE10=All I Want Is Forever
TTITLE11=Show Me the Way
TTITLE12=So Many Tears
TTITLE13=After the Love Has Lost Its Shine
TTITLE14=Quiet Time
EXTD=
EXTT0=
EXTT1=
EXTT2=
EXTT3=
EXTT4=
EXTT5=
EXTT6=
EXTT7=
EXTT8=
EXTT9=
EXTT10=
EXTT11=
EXTT12=
EXTT13=
EXTT14=
PLAYORDER=
